<svg xmlns="http://www.w3.org/2000/svg" viewBox="0 0 64 64">
  <g fill="none" stroke="#ffffff" stroke-width="3.2" stroke-linecap="round" stroke-linejoin="round">
    <path d="M20 13 h20 a4 4 0 0 1 4 4 v18"/>
    <path d="M44 41 v6 a4 4 0 0 1 -4 4 H24"/>
    <path d="M20 13 a4 4 0 0 0 -4 4 v26 a4 4 0 0 0 4 4"/>
    <path d="M13 20 h9"/>
    <path d="M13 29 h9"/>
    <path d="M13 38 h9"/>
    <path d="M26 22 h13"/>
    <path d="M26 29 h11"/>
    <path d="M26 36 h8"/>
  </g>
  <g fill="none" stroke="#ffffff" stroke-width="2.7" stroke-linecap="round" stroke-linejoin="round">
    <path d="M48 34 c-2 -1 -4 0 -4 2 c-3 0 -4 3 -2 5 c-2 2 -1 5 1 6 c0 3 3 4 5 3"/>
    <path d="M48 34 c2 -1 4 0 4 2 c3 0 4 3 2 5 c2 2 1 5 -1 6 c0 3 -3 4 -5 3"/>
    <path d="M48 34 V50"/>
    <path d="M44 40 c2 0 3 1 4 1"/>
    <path d="M52 40 c-2 0 -3 1 -4 1"/>
    <path d="M45 46 c1 0 2 -1 3 -1"/>
    <path d="M51 46 c-1 0 -2 -1 -3 -1"/>
  </g>
</svg>
